<?xml version="1.0" encoding="utf-8"?>
<!-- Svg Vector Icons : http://www.onlinewebfonts.com/icon -->
<!DOCTYPE svg PUBLIC "-//W3C//DTD SVG 1.1//EN" "http://www.w3.org/Graphics/SVG/1.1/DTD/svg11.dtd">
<svg version="1.1" xmlns="http://www.w3.org/2000/svg" xmlns:xlink="http://www.w3.org/1999/xlink" x="0px" y="0px" viewBox="0 0 1000 1000" enable-background="new 0 0 1000 1000" xml:space="preserve">
<metadata> Svg Vector Icons : http://www.onlinewebfonts.com/icon </metadata>
<g><g  transform="translate(0.000000,511.000000) scale(0.100000,-0.100000)"><path d="M968.7,4982c-396-105-740.6-453.5-841.6-851.5c-25.7-106.9-29.7-568.3-25.7-4069.4l5.9-3948.6l45.5-118.8c138.6-368.3,499-687.1,851.5-760.4c148.5-29.7,7839.7-29.7,7988.3,0c400,83.2,802,485.2,885.2,885.2c29.7,148.5,29.7,7839.7,0,7988.3c-73.3,352.5-392.1,712.9-760.4,851.5l-118.8,45.5l-3960.4,4C1612.2,5011.6,1063.7,5007.7,968.7,4982z M8867.8,4675c235.6-53.5,510.9-269.3,613.9-479.2c104.9-217.8,101-11.9,101-4085.2c0-4146.6,7.9-3855.5-112.9-4095.1c-65.3-128.7-247.5-310.9-378.2-376.2c-231.7-116.8,11.9-110.9-4093.1-110.9s-3861.4-5.9-4093.1,110.9c-132.7,67.3-312.9,247.5-380.2,380.2c-116.8,231.7-110.9-11.9-110.9,4093.1c0,4103-5.9,3861.4,110.9,4093.1c104.9,207.9,342.6,396,580.2,463.4C1222.1,4700.8,8729.2,4708.7,8867.8,4675z"/><path d="M3443.9,478.9v-2633.7h326.7h326.7v1176.2c0,1295.1,7.9,1404,118.8,1647.6c106.9,235.6,382.2,445.6,667.3,503c126.7,27.7,409.9,15.8,524.8-17.8c106.9-33.7,253.5-138.6,326.7-235.6c35.6-47.5,85.1-144.6,108.9-217.8c45.5-132.7,45.5-138.6,51.5-1493.1l6-1362.4h324.7h326.7v1243.6c0,1580.2-17.8,1790.1-172.3,2089.1c-124.7,237.6-394.1,435.6-708.9,520.8c-188.1,49.5-544.6,59.4-744.6,19.8c-273.3-55.4-524.8-188.1-724.8-386.1l-105-103V2170v942.6h-326.7h-326.7V478.9z"/></g></g>
</svg>